<?xml version="1.0" encoding="UTF-8" standalone="no"?>
<!-- Created with Inkscape (http://www.inkscape.org/) -->

<svg
   xmlns:dc="http://purl.org/dc/elements/1.1/"
   xmlns:cc="http://creativecommons.org/ns#"
   xmlns:rdf="http://www.w3.org/1999/02/22-rdf-syntax-ns#"
   xmlns:svg="http://www.w3.org/2000/svg"
   xmlns="http://www.w3.org/2000/svg"
   xmlns:sodipodi="http://sodipodi.sourceforge.net/DTD/sodipodi-0.dtd"
   xmlns:inkscape="http://www.inkscape.org/namespaces/inkscape"
   width="281.05563"
   height="114.05087"
   id="svg2"
   version="1.1"
   inkscape:version="0.48.4 r9939"
   sodipodi:docname="inserm-base.svg">
  <defs
     id="defs4">
    <clipPath
       id="clipPath3001"
       clipPathUnits="userSpaceOnUse">
      <path
         id="path3003"
         d="m 0,137.955 280.583,0 L 280.583,0 0,0 0,137.955 z"
         inkscape:connector-curvature="0" />
    </clipPath>
  </defs>
  <sodipodi:namedview
     id="base"
     pagecolor="#ffffff"
     bordercolor="#666666"
     borderopacity="1.0"
     inkscape:pageopacity="0.0"
     inkscape:pageshadow="2"
     inkscape:zoom="1.4"
     inkscape:cx="182.74926"
     inkscape:cy="8.2459306"
     inkscape:document-units="px"
     inkscape:current-layer="layer1"
     showgrid="false"
     inkscape:window-width="1458"
     inkscape:window-height="796"
     inkscape:window-x="26"
     inkscape:window-y="26"
     inkscape:window-maximized="0"
     fit-margin-top="0"
     fit-margin-left="0"
     fit-margin-right="0"
     fit-margin-bottom="0" />
  <metadata
     id="metadata7">
    <rdf:RDF>
      <cc:Work
         rdf:about="">
        <dc:format>image/svg+xml</dc:format>
        <dc:type
           rdf:resource="http://purl.org/dc/dcmitype/StillImage" />
        <dc:title />
      </cc:Work>
    </rdf:RDF>
  </metadata>
  <g
     inkscape:label="Layer 1"
     inkscape:groupmode="layer"
     id="layer1"
     transform="translate(-234.47219,-475.33675)">
    <g
       transform="matrix(1.25,0,0,-1.25,199.54719,624.06425)"
       inkscape:label="logo-inserm"
       id="g2993">
      <path
         id="path2995"
         style="fill:#0b1423;fill-opacity:1;fill-rule:nonzero;stroke:none"
         d="m 96.471,81.993 -9.215,0 0,36.989 9.215,0 0,-36.989 z"
         inkscape:connector-curvature="0" />
      <g
         id="g2997">
        <g
           clip-path="url(#clipPath3001)"
           id="g2999">
          <g
             transform="translate(111.9219,106.1523)"
             id="g3005">
            <path
               id="path3007"
               style="fill:#0b1423;fill-opacity:1;fill-rule:nonzero;stroke:none"
               d="m 0,0 c 0.787,0.842 1.715,1.826 3.141,2.583 1.203,0.64 2.632,1.224 4.574,1.224 1.625,0 3.461,-0.316 4.875,-1.1 2.879,-1.517 3.611,-3.973 3.611,-8.212 l 0,-18.654 -8.013,0 0,15.362 c 0,2.455 -0.053,3.344 -0.368,4.076 -0.629,1.463 -2.047,2.09 -3.621,2.09 -4.25,0 -4.25,-3.396 -4.25,-6.793 l 0,-14.735 -8.033,0 0,27.263 L 0,3.104 0,0 z"
               inkscape:connector-curvature="0" />
          </g>
          <g
             transform="translate(136.4277,91.165)"
             id="g3009">
            <path
               id="path3011"
               style="fill:#0b1423;fill-opacity:1;fill-rule:nonzero;stroke:none"
               d="m 0,0 c 2.203,-2.142 5.227,-3.728 8.297,-3.728 1.955,0 4.918,0.627 4.918,2.665 0,0.94 -0.582,1.306 -1.059,1.568 C 10.939,1.13 9.037,1.287 7.447,1.549 6.23,1.759 4.965,2.019 3.758,2.385 c -1.674,0.469 -3.35,1.149 -4.557,2.35 -1.203,1.202 -2.043,3.082 -2.043,5.119 0,4.493 3.877,9.137 11.561,9.137 6.476,0 10.445,-2.59 12.32,-3.894 l -4.516,-4.706 c -2.552,1.984 -5.531,2.651 -7.433,2.651 -3.174,0 -3.916,-1.254 -3.916,-2.039 0,-1.566 1.748,-1.879 4.39,-2.35 5.526,-0.992 11.883,-2.455 11.883,-8.933 0,-6.434 -6.461,-9.576 -12.941,-9.576 -7.627,0 -11.748,3.564 -13.477,5.189 L 0,0 z"
               inkscape:connector-curvature="0" />
          </g>
          <g
             transform="translate(182.1348,91.272)"
             id="g3013">
            <path
               id="path3015"
               style="fill:#0b1423;fill-opacity:1;fill-rule:nonzero;stroke:none"
               d="m 0,0 c -1.266,-2.107 -2.514,-4.123 -6.916,-4.123 -4.35,0 -6.287,3.428 -6.234,6.853 l 19.539,0 c -0.106,3.097 -0.315,8.424 -3.875,12.233 -3.508,3.766 -8.053,3.922 -10.211,3.922 -10.791,0 -13.674,-8.46 -13.674,-15.053 0,-8.987 5.283,-14.103 13.828,-14.103 4.822,0 8.143,1.389 10.688,3.708 1.416,1.29 2.343,2.637 3.292,4.18 L 0,0 z m -13.098,7.77 c 0.262,1.145 0.526,2.394 1.623,3.591 0.787,0.834 2.149,1.773 4.088,1.773 1.414,0 2.936,-0.522 3.93,-1.511 1.152,-1.198 1.361,-2.708 1.52,-3.853 l -11.161,0 z"
               inkscape:connector-curvature="0" />
          </g>
          <g
             transform="translate(200.8926,106.1523)"
             id="g3017">
            <path
               id="path3019"
               style="fill:#0b1423;fill-opacity:1;fill-rule:nonzero;stroke:none"
               d="m 0,0 c 1.781,1.52 3.719,3.088 7.906,3.508 l 0,-7.154 -2.672,-0.418 C 1.363,-4.744 0.211,-6.048 0.211,-9.502 l 0,-14.657 -8.033,0 0,27.37 L 0,3.211 0,0 z"
               inkscape:connector-curvature="0" />
          </g>
          <g
             transform="translate(220.7363,106.1484)"
             id="g3021">
            <path
               id="path3023"
               style="fill:#0b1423;fill-opacity:1;fill-rule:nonzero;stroke:none"
               d="m 0,0 c 0.953,1.1 3.066,3.811 7.82,3.811 4.494,0 6.112,-1.677 7.573,-3.196 1.58,1.31 3.796,3.196 8.183,3.196 4.494,0 6.791,-2.252 7.625,-3.928 0.68,-1.466 0.733,-3.35 0.733,-6.276 l 0,-17.762 -7.934,0 0,14.314 c 0,1.568 0,3.605 -0.318,4.65 -0.739,2.298 -2.905,2.457 -3.541,2.457 -0.791,0 -1.85,-0.211 -2.641,-0.838 -1.533,-1.201 -1.533,-2.769 -1.533,-5.746 l 0,-14.837 -7.934,0 0,16.141 c 0,1.203 -0.054,2.823 -0.791,3.868 -0.635,0.835 -1.851,1.412 -3.172,1.412 -0.634,0 -1.48,-0.159 -2.218,-0.629 C 0.055,-4.564 0,-6.759 0,-8.61 l 0,-15.545 -7.932,0 0,27.27 L 0,3.115 0,0 z"
               inkscape:connector-curvature="0" />
          </g>
          <g
             transform="translate(93.2759,74.7578)"
             id="g3025">
            <path
               id="path3027"
               style="fill:#f03c1f;fill-opacity:1;fill-rule:nonzero;stroke:none"
               d="m 0,0 c -4.515,1 -8.446,-2.934 -7.445,-7.449 0.504,-2.276 2.339,-4.112 4.614,-4.615 4.515,-1.001 8.451,2.935 7.448,7.45 C 4.112,-2.339 2.275,-0.504 0,0"
               inkscape:connector-curvature="0" />
          </g>
          <path
             id="path3029"
             style="fill:#f47216;fill-opacity:1;fill-rule:nonzero;stroke:none"
             d="m 64.832,87.983 -4.541,0 0,18.765 4.541,0 0,-18.765 z"
             inkscape:connector-curvature="0" />
          <path
             id="path3031"
             style="fill:#00acdf;fill-opacity:1;fill-rule:nonzero;stroke:none"
             d="m 56.745,98.272 -4.542,0 0,18.765 4.542,0 0,-18.765 z"
             inkscape:connector-curvature="0" />
          <path
             id="path3033"
             style="fill:#8c2294;fill-opacity:1;fill-rule:nonzero;stroke:none"
             d="m 56.745,77.722 -4.542,0 0,18.765 4.542,0 0,-18.765 z"
             inkscape:connector-curvature="0" />
          <path
             id="path3035"
             style="fill:#f03c1f;fill-opacity:1;fill-rule:nonzero;stroke:none"
             d="m 48.659,100.205 -4.543,0 0,18.765 4.543,0 0,-18.765 z"
             inkscape:connector-curvature="0" />
          <path
             id="path3037"
             style="fill:#a2bb20;fill-opacity:1;fill-rule:nonzero;stroke:none"
             d="m 48.659,75.798 -4.543,0 0,18.765 4.543,0 0,-18.765 z"
             inkscape:connector-curvature="0" />
          <path
             id="path3039"
             style="fill:#14559a;fill-opacity:1;fill-rule:nonzero;stroke:none"
             d="m 40.571,98.272 -4.543,0 0,18.765 4.543,0 0,-18.765 z"
             inkscape:connector-curvature="0" />
          <path
             id="path3041"
             style="fill:#fab20b;fill-opacity:1;fill-rule:nonzero;stroke:none"
             d="m 40.571,77.722 -4.543,0 0,18.765 4.543,0 0,-18.765 z"
             inkscape:connector-curvature="0" />
          <path
             id="path3043"
             style="fill:#bd1980;fill-opacity:1;fill-rule:nonzero;stroke:none"
             d="m 32.482,87.983 -4.542,0 0,18.765 4.542,0 0,-18.765 z"
             inkscape:connector-curvature="0" />
          <g
             transform="translate(87.1255,40.7607)"
             id="g3045">
            <path
               id="path3047"
               style="fill:#231f20;fill-opacity:1;fill-rule:nonzero;stroke:none"
               d="m 0,0 0,7.8 1.885,0 0,-6.154 2.957,0 L 4.842,0 0,0 z"
               inkscape:connector-curvature="0" />
          </g>
          <g
             transform="translate(94.998,43.1582)"
             id="g3049">
            <path
               id="path3051"
               style="fill:#231f20;fill-opacity:1;fill-rule:nonzero;stroke:none"
               d="m 0,0 c -0.064,-0.022 -0.129,-0.044 -0.193,-0.077 -0.407,-0.177 -0.514,-0.42 -0.514,-0.641 0,-0.033 0.011,-0.155 0.064,-0.265 0.064,-0.111 0.225,-0.321 0.568,-0.321 0.3,0 0.557,0.177 0.632,0.233 0.482,0.353 0.503,0.894 0.503,1.435 L 0,0 z m 1.221,-2.397 0,0.519 C 1.103,-1.967 0.996,-2.044 0.878,-2.121 0.675,-2.265 0.204,-2.552 -0.493,-2.552 c -1.007,0 -1.467,0.564 -1.65,0.949 -0.117,0.244 -0.182,0.532 -0.182,0.807 0,1.039 0.9,1.536 1.147,1.647 C -0.761,1.038 0,1.193 1.06,1.392 l 0,0.32 c 0,0.199 -0.032,0.696 -0.632,0.696 -0.482,0 -0.707,-0.232 -0.792,-0.42 C -0.386,1.944 -0.418,1.855 -0.439,1.734 l -1.65,0 c 0.022,0.232 0.032,0.73 0.45,1.161 0.461,0.463 1.071,0.551 1.264,0.584 0.321,0.045 0.589,0.045 0.718,0.045 0.782,0 1.842,-0.188 2.217,-1.016 0.064,-0.155 0.118,-0.31 0.118,-0.641 l 0,-3.37 c 0,-0.497 0.021,-0.685 0.16,-0.894 l -1.617,0 z"
               inkscape:connector-curvature="0" />
          </g>
          <g
             transform="translate(106.6304,41.667)"
             id="g3053">
            <path
               id="path3055"
               style="fill:#231f20;fill-opacity:1;fill-rule:nonzero;stroke:none"
               d="m 0,0 c -0.493,-0.763 -1.521,-1.061 -2.368,-1.061 -0.299,0 -1.232,0.055 -2.046,0.575 -0.332,0.21 -0.557,0.441 -0.664,0.541 l 1.05,0.972 c 0.096,-0.099 0.193,-0.199 0.3,-0.276 0.364,-0.299 0.868,-0.52 1.329,-0.52 0.074,0 0.224,0.011 0.406,0.056 0.247,0.055 0.579,0.198 0.579,0.519 -0.011,0.398 -0.503,0.442 -1.104,0.542 -1.167,0.198 -1.703,0.474 -1.992,1.048 -0.15,0.31 -0.171,0.586 -0.171,0.719 0,0.155 0.032,0.497 0.235,0.862 0.258,0.475 0.889,1.071 2.132,1.071 0.354,0 1.178,-0.055 2.024,-0.552 0.161,-0.1 0.311,-0.199 0.461,-0.309 L -0.847,3.215 c -0.096,0.077 -0.192,0.154 -0.299,0.221 -0.3,0.187 -0.75,0.353 -1.104,0.353 -0.235,0 -0.45,-0.066 -0.524,-0.1 -0.204,-0.099 -0.258,-0.243 -0.258,-0.342 0,-0.111 0.065,-0.21 0.15,-0.277 0.161,-0.11 0.568,-0.165 0.75,-0.209 L -1.393,2.695 C -0.504,2.496 0.268,2.032 0.268,0.961 0.268,0.485 0.096,0.144 0,0"
               inkscape:connector-curvature="0" />
          </g>
          <g
             transform="translate(112.3823,41.5674)"
             id="g3057">
            <path
               id="path3059"
               style="fill:#231f20;fill-opacity:1;fill-rule:nonzero;stroke:none"
               d="m 0,0 c -0.739,-0.895 -1.693,-0.994 -2.1,-0.994 -0.246,0 -0.739,0.033 -1.307,0.32 -1.049,0.53 -1.467,1.558 -1.467,2.706 0,0.266 0.011,0.818 0.278,1.459 0.633,1.513 2.014,1.635 2.529,1.635 0.439,0 1.424,-0.089 2.174,-1.061 C 0.171,3.977 0.214,3.91 0.321,3.733 L -0.9,3.016 c -0.011,0.033 -0.097,0.21 -0.182,0.332 -0.097,0.121 -0.407,0.474 -0.911,0.474 -0.117,0 -0.353,-0.01 -0.599,-0.199 -0.568,-0.441 -0.59,-1.425 -0.59,-1.535 0,-0.497 0.161,-1.138 0.536,-1.458 0.107,-0.089 0.343,-0.276 0.707,-0.276 0.536,0.01 0.825,0.375 0.921,0.519 0.054,0.088 0.097,0.154 0.161,0.342 L 0.385,0.552 C 0.268,0.364 0.139,0.166 0,0"
               inkscape:connector-curvature="0" />
          </g>
          <path
             id="path3061"
             style="fill:#231f20;fill-opacity:1;fill-rule:nonzero;stroke:none"
             d="m 113.667,46.527 1.639,0 0,-5.767 -1.639,0 0,5.767 z m 0,2.034 1.639,0 0,-1.315 -1.639,0 0,1.315 z"
             inkscape:connector-curvature="0" />
          <g
             transform="translate(119.7612,45.3789)"
             id="g3063">
            <path
               id="path3065"
               style="fill:#231f20;fill-opacity:1;fill-rule:nonzero;stroke:none"
               d="m 0,0 c -0.225,0.11 -0.407,0.11 -0.503,0.11 -0.654,0 -0.954,-0.497 -1.039,-0.696 -0.043,-0.1 -0.086,-0.221 -0.129,-0.441 l 2.282,0 C 0.589,-0.84 0.557,-0.255 0,0 m -1.682,-2.088 c 0,-0.056 -0.01,-0.188 0.022,-0.343 0.128,-0.673 0.589,-1.093 1.253,-1.093 0.096,0 0.311,0.01 0.536,0.099 0.557,0.198 0.803,0.784 0.878,0.928 L 2.25,-3.16 C 2.025,-3.502 1.907,-3.657 1.778,-3.812 0.954,-4.751 -0.118,-4.828 -0.535,-4.828 c -0.172,0 -0.568,0.011 -1.007,0.154 -1.243,0.399 -1.821,1.526 -1.821,2.828 0,0.354 0.021,1.426 0.717,2.254 0.343,0.398 0.932,0.917 2.153,0.917 0.375,0 1.49,-0.044 2.185,-1.05 0.633,-0.894 0.611,-2.087 0.622,-2.363 l -3.996,0 z"
               inkscape:connector-curvature="0" />
          </g>
          <g
             transform="translate(126.3809,40.7607)"
             id="g3067">
            <path
               id="path3069"
               style="fill:#231f20;fill-opacity:1;fill-rule:nonzero;stroke:none"
               d="m 0,0 0,3.259 c 0,0.387 -0.011,0.674 -0.064,0.829 -0.075,0.198 -0.279,0.464 -0.75,0.464 -0.075,0 -0.353,0 -0.557,-0.177 -0.278,-0.221 -0.311,-0.574 -0.311,-1.26 l 0,-3.115 -1.649,0 0,5.756 1.671,0 0,-0.497 c 0.054,0.054 0.118,0.143 0.257,0.254 C -1.2,5.667 -0.75,5.91 -0.085,5.91 0.043,5.91 0.514,5.899 0.911,5.679 1.596,5.303 1.65,4.651 1.65,3.944 L 1.65,0 0,0 z"
               inkscape:connector-curvature="0" />
          </g>
          <g
             transform="translate(133.9966,41.5674)"
             id="g3071">
            <path
               id="path3073"
               style="fill:#231f20;fill-opacity:1;fill-rule:nonzero;stroke:none"
               d="m 0,0 c -0.739,-0.895 -1.693,-0.994 -2.1,-0.994 -0.246,0 -0.739,0.033 -1.307,0.32 -1.049,0.53 -1.467,1.558 -1.467,2.706 0,0.266 0.011,0.818 0.278,1.459 0.633,1.513 2.014,1.635 2.529,1.635 0.439,0 1.424,-0.089 2.174,-1.061 C 0.171,3.977 0.214,3.91 0.321,3.733 L -0.9,3.016 c -0.011,0.033 -0.097,0.21 -0.182,0.332 -0.097,0.121 -0.407,0.474 -0.911,0.474 -0.117,0 -0.353,-0.01 -0.599,-0.199 -0.568,-0.441 -0.59,-1.425 -0.59,-1.535 0,-0.497 0.161,-1.138 0.536,-1.458 0.107,-0.089 0.343,-0.276 0.707,-0.276 0.536,0.01 0.825,0.375 0.921,0.519 0.054,0.088 0.097,0.154 0.161,0.342 L 0.385,0.552 C 0.268,0.364 0.139,0.166 0,0"
               inkscape:connector-curvature="0" />
          </g>
          <g
             transform="translate(138.248,45.3789)"
             id="g3075">
            <path
               id="path3077"
               style="fill:#231f20;fill-opacity:1;fill-rule:nonzero;stroke:none"
               d="m 0,0 c -0.225,0.11 -0.407,0.11 -0.503,0.11 -0.654,0 -0.954,-0.497 -1.039,-0.696 -0.043,-0.1 -0.086,-0.221 -0.129,-0.441 l 2.282,0 C 0.589,-0.84 0.557,-0.255 0,0 m -1.682,-2.088 c 0,-0.056 -0.01,-0.188 0.022,-0.343 0.128,-0.673 0.589,-1.093 1.253,-1.093 0.096,0 0.311,0.01 0.536,0.099 0.557,0.198 0.803,0.784 0.878,0.928 L 2.249,-3.16 C 2.025,-3.502 1.907,-3.657 1.778,-3.812 0.954,-4.751 -0.118,-4.828 -0.536,-4.828 c -0.171,0 -0.567,0.011 -1.006,0.154 -1.243,0.399 -1.821,1.526 -1.821,2.828 0,0.354 0.021,1.426 0.717,2.254 0.343,0.398 0.932,0.917 2.153,0.917 0.375,0 1.49,-0.044 2.186,-1.05 0.632,-0.894 0.611,-2.087 0.62,-2.363 l -3.995,0 z"
               inkscape:connector-curvature="0" />
          </g>
          <g
             transform="translate(148.1025,45.0908)"
             id="g3079">
            <path
               id="path3081"
               style="fill:#231f20;fill-opacity:1;fill-rule:nonzero;stroke:none"
               d="m 0,0 c -0.129,0.155 -0.299,0.276 -0.492,0.332 -0.108,0.033 -0.194,0.033 -0.237,0.033 -0.609,0 -1.177,-0.574 -1.177,-1.823 0,-0.121 -0.022,-0.817 0.289,-1.292 0.086,-0.122 0.193,-0.232 0.322,-0.31 0.074,-0.055 0.268,-0.154 0.524,-0.154 0.568,0 0.792,0.419 0.888,0.596 0.129,0.243 0.27,0.586 0.27,1.204 C 0.387,-1.248 0.408,-0.497 0,0 M 1.457,-3.402 C 1.146,-3.889 0.762,-4.143 0.578,-4.23 0.396,-4.319 0.064,-4.44 -0.461,-4.44 c -0.588,0 -0.889,0.176 -1.371,0.486 l 0,-2.376 -1.67,0 0,7.767 1.467,0 0.012,-0.564 c 0.084,0.11 0.117,0.166 0.234,0.254 0.203,0.177 0.643,0.442 1.328,0.442 0.322,0 1.072,-0.055 1.682,-0.729 0.568,-0.618 0.75,-1.469 0.75,-2.276 C 1.961,-2.419 1.66,-3.07 1.457,-3.402"
               inkscape:connector-curvature="0" />
          </g>
          <g
             transform="translate(154.4756,45.1357)"
             id="g3083">
            <path
               id="path3085"
               style="fill:#231f20;fill-opacity:1;fill-rule:nonzero;stroke:none"
               d="m 0,0 c -0.15,0.11 -0.375,0.221 -0.814,0.221 -0.075,0 -0.385,-0.023 -0.622,-0.166 -0.298,-0.177 -0.652,-0.674 -0.652,-1.525 0,-0.563 0.182,-0.983 0.289,-1.16 0.129,-0.198 0.449,-0.563 1.07,-0.563 0.913,0 1.319,0.785 1.319,1.646 C 0.59,-0.674 0.322,-0.232 0,0 M 1.275,-3.878 C 0.953,-4.154 0.301,-4.552 -0.75,-4.552 c -0.289,0 -1.424,0.056 -2.195,0.828 -0.332,0.332 -0.803,1.039 -0.803,2.244 0,0.331 0.021,1.27 0.652,2.054 0.387,0.475 1.159,1.072 2.573,0.984 0.652,-0.034 1.23,-0.189 1.755,-0.62 0.696,-0.584 1.028,-1.501 1.028,-2.429 0,-1.304 -0.6,-2.056 -0.985,-2.387"
               inkscape:connector-curvature="0" />
          </g>
          <g
             transform="translate(161.1494,40.7607)"
             id="g3087">
            <path
               id="path3089"
               style="fill:#231f20;fill-opacity:1;fill-rule:nonzero;stroke:none"
               d="M 0,0 0,0.541 C -0.119,0.409 -0.182,0.343 -0.246,0.287 -0.451,0.121 -0.943,-0.166 -1.629,-0.166 c -0.129,0 -0.75,0 -1.189,0.353 -0.621,0.509 -0.567,1.437 -0.567,2.144 l 0,3.436 1.66,0 0,-3.59 c 0,-0.365 0.01,-0.642 0.311,-0.829 0.096,-0.055 0.236,-0.133 0.482,-0.133 0.524,0 0.803,0.309 0.877,0.519 C 0,1.878 0.01,2.021 0.01,2.177 l 0,3.59 1.638,0 L 1.648,0 0,0 z"
               inkscape:connector-curvature="0" />
          </g>
          <g
             transform="translate(166.9326,45.0029)"
             id="g3091">
            <path
               id="path3093"
               style="fill:#231f20;fill-opacity:1;fill-rule:nonzero;stroke:none"
               d="m 0,0 c -0.053,-0.011 -0.311,-0.044 -0.514,-0.121 -0.439,-0.155 -0.513,-0.442 -0.513,-0.873 l 0,-3.248 -1.639,0 0,5.766 1.596,0 0,-0.596 c 0.138,0.122 0.289,0.276 0.652,0.43 0.451,0.189 0.762,0.21 0.965,0.233 l 0,-1.503 L 0,0 z"
               inkscape:connector-curvature="0" />
          </g>
          <path
             id="path3095"
             style="fill:#231f20;fill-opacity:1;fill-rule:nonzero;stroke:none"
             d="m 171.433,48.561 1.639,0 0,-7.8 -1.639,0 0,7.8 z"
             inkscape:connector-curvature="0" />
          <g
             transform="translate(176.6162,43.1582)"
             id="g3097">
            <path
               id="path3099"
               style="fill:#231f20;fill-opacity:1;fill-rule:nonzero;stroke:none"
               d="m 0,0 c -0.064,-0.022 -0.129,-0.044 -0.193,-0.077 -0.407,-0.177 -0.514,-0.42 -0.514,-0.641 0,-0.033 0.012,-0.155 0.064,-0.265 0.065,-0.111 0.225,-0.321 0.569,-0.321 0.299,0 0.556,0.177 0.631,0.233 0.482,0.353 0.504,0.894 0.504,1.435 L 0,0 z m 1.221,-2.397 0,0.519 C 1.104,-1.967 0.996,-2.044 0.879,-2.121 0.676,-2.265 0.203,-2.552 -0.492,-2.552 c -1.008,0 -1.467,0.564 -1.651,0.949 -0.117,0.244 -0.181,0.532 -0.181,0.807 0,1.039 0.9,1.536 1.146,1.647 C -0.76,1.038 0,1.193 1.061,1.392 l 0,0.32 c 0,0.199 -0.032,0.696 -0.631,0.696 -0.483,0 -0.707,-0.232 -0.793,-0.42 C -0.385,1.944 -0.418,1.855 -0.439,1.734 l -1.649,0 c 0.022,0.232 0.031,0.73 0.449,1.161 0.461,0.463 1.071,0.551 1.264,0.584 0.322,0.045 0.59,0.045 0.719,0.045 0.781,0 1.842,-0.188 2.217,-1.016 0.064,-0.155 0.117,-0.31 0.117,-0.641 l 0,-3.37 C 2.678,-2 2.699,-2.188 2.84,-2.397 l -1.619,0 z"
               inkscape:connector-curvature="0" />
          </g>
          <g
             transform="translate(188.249,41.667)"
             id="g3101">
            <path
               id="path3103"
               style="fill:#231f20;fill-opacity:1;fill-rule:nonzero;stroke:none"
               d="m 0,0 c -0.492,-0.763 -1.521,-1.061 -2.367,-1.061 -0.301,0 -1.233,0.055 -2.047,0.575 -0.332,0.21 -0.557,0.441 -0.664,0.541 l 1.051,0.972 c 0.095,-0.099 0.191,-0.199 0.298,-0.276 0.366,-0.299 0.87,-0.52 1.329,-0.52 0.076,0 0.226,0.011 0.408,0.056 0.246,0.055 0.578,0.198 0.578,0.519 -0.012,0.398 -0.504,0.442 -1.104,0.542 -1.168,0.198 -1.703,0.474 -1.992,1.048 -0.15,0.31 -0.172,0.586 -0.172,0.719 0,0.155 0.034,0.497 0.237,0.862 0.256,0.475 0.888,1.071 2.131,1.071 0.353,0 1.179,-0.055 2.025,-0.552 0.16,-0.1 0.31,-0.199 0.461,-0.309 L -0.846,3.215 c -0.097,0.077 -0.193,0.154 -0.3,0.221 -0.301,0.187 -0.75,0.353 -1.104,0.353 -0.236,0 -0.449,-0.066 -0.525,-0.1 -0.204,-0.099 -0.256,-0.243 -0.256,-0.342 0,-0.111 0.064,-0.21 0.15,-0.277 0.16,-0.11 0.567,-0.165 0.748,-0.209 l 0.74,-0.166 C -0.504,2.496 0.268,2.032 0.268,0.961 0.268,0.485 0.096,0.144 0,0"
               inkscape:connector-curvature="0" />
          </g>
          <g
             transform="translate(191.5693,43.1582)"
             id="g3105">
            <path
               id="path3107"
               style="fill:#231f20;fill-opacity:1;fill-rule:nonzero;stroke:none"
               d="m 0,0 c -0.064,-0.022 -0.129,-0.044 -0.193,-0.077 -0.407,-0.177 -0.514,-0.42 -0.514,-0.641 0,-0.033 0.01,-0.155 0.064,-0.265 0.065,-0.111 0.225,-0.321 0.567,-0.321 0.301,0 0.556,0.177 0.633,0.233 0.482,0.353 0.504,0.894 0.504,1.435 L 0,0 z m 1.221,-2.397 0,0.519 C 1.104,-1.967 0.996,-2.044 0.877,-2.121 0.674,-2.265 0.203,-2.552 -0.494,-2.552 c -1.006,0 -1.467,0.564 -1.649,0.949 -0.119,0.244 -0.181,0.532 -0.181,0.807 0,1.039 0.898,1.536 1.144,1.647 0.418,0.187 1.18,0.342 2.241,0.541 l 0,0.32 c 0,0.199 -0.034,0.696 -0.633,0.696 -0.483,0 -0.707,-0.232 -0.793,-0.42 C -0.387,1.944 -0.418,1.855 -0.439,1.734 l -1.651,0 c 0.022,0.232 0.033,0.73 0.451,1.161 0.459,0.463 1.071,0.551 1.264,0.584 0.32,0.045 0.588,0.045 0.717,0.045 0.783,0 1.842,-0.188 2.217,-1.016 0.064,-0.155 0.119,-0.31 0.119,-0.641 l 0,-3.37 c 0,-0.497 0.021,-0.685 0.16,-0.894 l -1.617,0 z"
               inkscape:connector-curvature="0" />
          </g>
          <g
             transform="translate(199.0986,40.7607)"
             id="g3109">
            <path
               id="path3111"
               style="fill:#231f20;fill-opacity:1;fill-rule:nonzero;stroke:none"
               d="m 0,0 0,3.259 c 0,0.387 -0.012,0.674 -0.064,0.829 -0.077,0.198 -0.28,0.464 -0.75,0.464 -0.075,0 -0.354,0 -0.557,-0.177 C -1.65,4.154 -1.682,3.801 -1.682,3.115 l 0,-3.115 -1.65,0 0,5.756 1.672,0 0,-0.497 c 0.053,0.054 0.117,0.143 0.256,0.254 0.205,0.154 0.654,0.397 1.318,0.397 0.129,0 0.6,-0.011 0.996,-0.231 C 1.596,5.303 1.648,4.651 1.648,3.944 L 1.648,0 0,0 z"
               inkscape:connector-curvature="0" />
          </g>
          <g
             transform="translate(204.0479,45.3457)"
             id="g3113">
            <path
               id="path3115"
               style="fill:#231f20;fill-opacity:1;fill-rule:nonzero;stroke:none"
               d="m 0,0 0,-2.585 c 0,-0.232 -0.012,-0.365 0.041,-0.465 0.098,-0.187 0.354,-0.187 0.387,-0.187 0.193,0 0.384,0.01 0.578,0.01 l 0,-1.314 C 0.898,-4.562 0.514,-4.629 0.139,-4.629 c -0.119,0 -0.237,0 -0.344,0.011 -0.149,0.011 -0.643,0 -1.018,0.353 -0.427,0.387 -0.406,0.973 -0.406,1.503 l 0,2.773 -0.814,0 0,1.038 0.814,0 0,1.801 1.629,0 0,-1.812 1.092,0 L 1.092,0 0,0 z"
               inkscape:connector-curvature="0" />
          </g>
          <g
             transform="translate(208.8037,47.2344)"
             id="g3117">
            <path
               id="path3119"
               style="fill:#231f20;fill-opacity:1;fill-rule:nonzero;stroke:none"
               d="m 0,0 -1.082,0 0.781,1.47 1.949,0 L 0,0 z m 0.182,-1.855 c -0.225,0.11 -0.409,0.11 -0.504,0.11 -0.653,0 -0.953,-0.497 -1.039,-0.696 -0.043,-0.1 -0.086,-0.221 -0.129,-0.442 l 2.281,0 C 0.77,-2.695 0.738,-2.11 0.182,-1.855 M -1.5,-3.943 c 0,-0.056 -0.012,-0.189 0.021,-0.343 0.129,-0.674 0.588,-1.094 1.252,-1.094 0.098,0 0.311,0.011 0.538,0.1 0.556,0.198 0.802,0.784 0.876,0.927 L 2.432,-5.016 C 2.205,-5.357 2.088,-5.513 1.959,-5.667 1.135,-6.606 0.064,-6.684 -0.354,-6.684 c -0.171,0 -0.568,0.011 -1.007,0.155 -1.243,0.398 -1.821,1.525 -1.821,2.828 0,0.353 0.022,1.426 0.717,2.254 0.344,0.397 0.932,0.917 2.154,0.917 0.375,0 1.489,-0.044 2.184,-1.05 0.633,-0.895 0.611,-2.088 0.621,-2.363 l -3.994,0 z"
               inkscape:connector-curvature="0" />
          </g>
          <g
             transform="translate(137.6714,34.2588)"
             id="g3121">
            <path
               id="path3123"
               style="fill:#231f20;fill-opacity:1;fill-rule:nonzero;stroke:none"
               d="m 0,0 0,-1.646 3.61,0 0,-1.502 -3.61,0 0,-3.16 -1.885,0 0,7.8 5.804,0 L 3.919,0 0,0 z"
               inkscape:connector-curvature="0" />
          </g>
          <g
             transform="translate(145.1475,32.1934)"
             id="g3125">
            <path
               id="path3127"
               style="fill:#231f20;fill-opacity:1;fill-rule:nonzero;stroke:none"
               d="m 0,0 c -0.053,-0.011 -0.311,-0.044 -0.514,-0.121 -0.439,-0.155 -0.513,-0.442 -0.513,-0.873 l 0,-3.248 -1.639,0 0,5.766 1.596,0 0,-0.596 c 0.138,0.122 0.289,0.276 0.652,0.43 0.451,0.189 0.762,0.21 0.965,0.233 l 0,-1.502 L 0,0 z"
               inkscape:connector-curvature="0" />
          </g>
          <g
             transform="translate(149.8721,32.3262)"
             id="g3129">
            <path
               id="path3131"
               style="fill:#231f20;fill-opacity:1;fill-rule:nonzero;stroke:none"
               d="m 0,0 c -0.15,0.11 -0.375,0.221 -0.814,0.221 -0.075,0 -0.385,-0.023 -0.622,-0.166 -0.3,-0.177 -0.654,-0.674 -0.654,-1.525 0,-0.563 0.184,-0.983 0.289,-1.16 0.129,-0.198 0.451,-0.563 1.072,-0.563 0.911,0 1.317,0.785 1.317,1.646 C 0.588,-0.674 0.32,-0.232 0,0 m 1.273,-3.878 c -0.32,-0.276 -0.974,-0.674 -2.023,-0.674 -0.289,0 -1.426,0.056 -2.195,0.828 -0.332,0.332 -0.805,1.039 -0.805,2.244 0,0.331 0.021,1.27 0.654,2.054 0.385,0.475 1.157,1.072 2.571,0.984 C 0.129,1.524 0.707,1.37 1.23,0.938 1.928,0.354 2.26,-0.563 2.26,-1.491 c 0,-1.304 -0.6,-2.056 -0.987,-2.387"
               inkscape:connector-curvature="0" />
          </g>
          <g
             transform="translate(159.7041,27.9512)"
             id="g3133">
            <path
               id="path3135"
               style="fill:#231f20;fill-opacity:1;fill-rule:nonzero;stroke:none"
               d="M 0,0 0,3.027 C 0,3.624 0,3.966 -0.15,4.209 -0.277,4.43 -0.535,4.54 -0.771,4.54 -0.91,4.54 -1.295,4.507 -1.5,4.132 -1.627,3.899 -1.617,3.656 -1.617,3.138 l 0,-3.138 -1.639,0 0,3.425 c 0,0.553 -0.074,0.795 -0.322,0.961 -0.139,0.099 -0.311,0.143 -0.481,0.143 -0.076,0 -0.289,0 -0.472,-0.143 C -4.873,4.121 -4.885,3.668 -4.885,3.292 l 0,-3.292 -1.627,0 0,5.767 1.627,0 0.012,-0.597 c 0.096,0.122 0.16,0.199 0.277,0.299 0.215,0.177 0.621,0.452 1.297,0.452 0.129,0 0.707,-0.011 1.113,-0.275 0.172,-0.111 0.311,-0.254 0.452,-0.399 0.203,0.177 0.277,0.232 0.396,0.31 0.192,0.122 0.652,0.364 1.264,0.364 C 0.119,5.921 0.9,5.91 1.361,5.292 1.629,4.949 1.639,4.585 1.639,3.756 L 1.639,0 0,0 z"
               inkscape:connector-curvature="0" />
          </g>
          <g
             transform="translate(170.2549,28.8574)"
             id="g3137">
            <path
               id="path3139"
               style="fill:#231f20;fill-opacity:1;fill-rule:nonzero;stroke:none"
               d="m 0,0 c -0.492,-0.763 -1.521,-1.061 -2.367,-1.061 -0.301,0 -1.233,0.055 -2.047,0.575 -0.332,0.21 -0.557,0.441 -0.664,0.541 l 1.051,0.972 c 0.095,-0.099 0.191,-0.199 0.298,-0.276 0.366,-0.299 0.87,-0.52 1.329,-0.52 0.076,0 0.226,0.012 0.408,0.056 0.246,0.055 0.578,0.198 0.578,0.519 -0.012,0.398 -0.504,0.442 -1.104,0.542 -1.168,0.198 -1.703,0.474 -1.992,1.048 -0.15,0.31 -0.172,0.586 -0.172,0.719 0,0.155 0.034,0.497 0.237,0.862 0.256,0.475 0.888,1.071 2.131,1.071 0.353,0 1.179,-0.055 2.025,-0.552 0.16,-0.1 0.31,-0.199 0.461,-0.309 L -0.846,3.215 c -0.097,0.077 -0.193,0.154 -0.3,0.221 -0.301,0.187 -0.75,0.353 -1.104,0.353 -0.236,0 -0.449,-0.066 -0.525,-0.1 -0.204,-0.099 -0.256,-0.243 -0.256,-0.342 0,-0.111 0.064,-0.21 0.15,-0.276 0.16,-0.111 0.567,-0.166 0.748,-0.21 l 0.74,-0.166 C -0.504,2.496 0.268,2.032 0.268,0.961 0.268,0.485 0.096,0.144 0,0"
               inkscape:connector-curvature="0" />
          </g>
          <g
             transform="translate(176.0068,28.7578)"
             id="g3141">
            <path
               id="path3143"
               style="fill:#231f20;fill-opacity:1;fill-rule:nonzero;stroke:none"
               d="m 0,0 c -0.74,-0.896 -1.693,-0.994 -2.1,-0.994 -0.246,0 -0.74,0.033 -1.306,0.32 -1.051,0.53 -1.469,1.558 -1.469,2.706 0,0.266 0.012,0.818 0.279,1.459 0.631,1.513 2.014,1.635 2.528,1.635 0.439,0 1.425,-0.089 2.173,-1.061 C 0.17,3.977 0.213,3.91 0.32,3.733 L -0.9,3.016 c -0.012,0.033 -0.096,0.21 -0.182,0.331 -0.098,0.122 -0.408,0.475 -0.91,0.475 -0.119,0 -0.354,-0.01 -0.602,-0.199 -0.566,-0.441 -0.588,-1.425 -0.588,-1.535 0,-0.497 0.161,-1.138 0.536,-1.458 0.107,-0.089 0.341,-0.276 0.707,-0.276 0.535,0.01 0.824,0.375 0.921,0.518 0.053,0.089 0.096,0.155 0.161,0.343 L 0.385,0.552 C 0.268,0.364 0.139,0.165 0,0"
               inkscape:connector-curvature="0" />
          </g>
          <path
             id="path3145"
             style="fill:#231f20;fill-opacity:1;fill-rule:nonzero;stroke:none"
             d="m 177.292,33.718 1.639,0 0,-5.767 -1.639,0 0,5.767 z m 0,2.033 1.639,0 0,-1.315 -1.639,0 0,1.315 z"
             inkscape:connector-curvature="0" />
          <g
             transform="translate(183.3857,32.5693)"
             id="g3147">
            <path
               id="path3149"
               style="fill:#231f20;fill-opacity:1;fill-rule:nonzero;stroke:none"
               d="m 0,0 c -0.225,0.11 -0.406,0.11 -0.502,0.11 -0.654,0 -0.955,-0.497 -1.039,-0.696 -0.043,-0.1 -0.086,-0.221 -0.129,-0.441 l 2.281,0 C 0.59,-0.84 0.559,-0.255 0,0 m -1.682,-2.088 c 0,-0.056 -0.009,-0.188 0.022,-0.343 0.129,-0.673 0.59,-1.093 1.254,-1.093 0.095,0 0.31,0.01 0.535,0.099 0.557,0.198 0.803,0.784 0.879,0.928 L 2.25,-3.16 C 2.025,-3.502 1.908,-3.657 1.779,-3.812 0.953,-4.751 -0.117,-4.828 -0.535,-4.828 c -0.172,0 -0.569,0.011 -1.006,0.154 -1.244,0.399 -1.822,1.526 -1.822,2.828 0,0.354 0.021,1.426 0.718,2.254 0.342,0.398 0.932,0.917 2.153,0.917 0.375,0 1.488,-0.044 2.185,-1.05 0.631,-0.894 0.61,-2.087 0.621,-2.363 l -3.996,0 z"
               inkscape:connector-curvature="0" />
          </g>
          <g
             transform="translate(190.0049,27.9512)"
             id="g3151">
            <path
               id="path3153"
               style="fill:#231f20;fill-opacity:1;fill-rule:nonzero;stroke:none"
               d="m 0,0 0,3.259 c 0,0.387 -0.01,0.674 -0.064,0.829 -0.075,0.198 -0.278,0.464 -0.75,0.464 -0.075,0 -0.354,0 -0.557,-0.177 C -1.648,4.153 -1.682,3.8 -1.682,3.115 l 0,-3.115 -1.648,0 0,5.756 1.67,0 0,-0.497 c 0.055,0.054 0.119,0.143 0.258,0.254 C -1.199,5.667 -0.75,5.91 -0.086,5.91 0.043,5.91 0.516,5.899 0.91,5.679 1.596,5.303 1.65,4.651 1.65,3.944 L 1.65,0 0,0 z"
               inkscape:connector-curvature="0" />
          </g>
          <g
             transform="translate(197.6221,28.7578)"
             id="g3155">
            <path
               id="path3157"
               style="fill:#231f20;fill-opacity:1;fill-rule:nonzero;stroke:none"
               d="m 0,0 c -0.74,-0.896 -1.693,-0.994 -2.1,-0.994 -0.246,0 -0.74,0.033 -1.306,0.32 -1.051,0.53 -1.469,1.558 -1.469,2.706 0,0.266 0.012,0.818 0.279,1.459 0.631,1.513 2.014,1.635 2.528,1.635 0.439,0 1.425,-0.089 2.173,-1.061 C 0.17,3.977 0.213,3.91 0.32,3.733 L -0.9,3.016 c -0.012,0.033 -0.096,0.21 -0.182,0.331 -0.098,0.122 -0.408,0.475 -0.91,0.475 -0.119,0 -0.354,-0.01 -0.602,-0.199 -0.566,-0.441 -0.588,-1.425 -0.588,-1.535 0,-0.497 0.161,-1.138 0.536,-1.458 0.107,-0.089 0.341,-0.276 0.707,-0.276 0.535,0.01 0.824,0.375 0.921,0.518 0.053,0.089 0.096,0.155 0.161,0.343 L 0.385,0.552 C 0.268,0.364 0.139,0.165 0,0"
               inkscape:connector-curvature="0" />
          </g>
          <g
             transform="translate(201.874,32.5693)"
             id="g3159">
            <path
               id="path3161"
               style="fill:#231f20;fill-opacity:1;fill-rule:nonzero;stroke:none"
               d="m 0,0 c -0.225,0.11 -0.408,0.11 -0.504,0.11 -0.652,0 -0.953,-0.497 -1.039,-0.696 -0.043,-0.1 -0.086,-0.221 -0.129,-0.441 l 2.281,0 C 0.588,-0.84 0.557,-0.255 0,0 m -1.682,-2.088 c 0,-0.056 -0.011,-0.188 0.022,-0.343 0.129,-0.673 0.588,-1.093 1.252,-1.093 0.097,0 0.31,0.01 0.537,0.099 0.557,0.198 0.803,0.784 0.877,0.928 L 2.25,-3.16 C 2.023,-3.502 1.906,-3.657 1.777,-3.812 0.953,-4.751 -0.117,-4.828 -0.535,-4.828 c -0.172,0 -0.569,0.011 -1.008,0.154 -1.242,0.399 -1.82,1.526 -1.82,2.828 0,0.354 0.021,1.426 0.717,2.254 0.343,0.398 0.931,0.917 2.154,0.917 0.375,0 1.488,-0.044 2.183,-1.05 0.633,-0.894 0.612,-2.087 0.622,-2.363 l -3.995,0 z"
               inkscape:connector-curvature="0" />
          </g>
          <g
             transform="translate(210.1006,32.5361)"
             id="g3163">
            <path
               id="path3165"
               style="fill:#231f20;fill-opacity:1;fill-rule:nonzero;stroke:none"
               d="m 0,0 0,-2.585 c 0,-0.232 -0.012,-0.365 0.041,-0.465 0.098,-0.187 0.354,-0.187 0.387,-0.187 0.193,0 0.384,0.01 0.578,0.01 l 0,-1.314 C 0.898,-4.562 0.514,-4.629 0.139,-4.629 c -0.119,0 -0.237,0 -0.344,0.011 -0.149,0.011 -0.643,0 -1.018,0.353 -0.427,0.387 -0.406,0.973 -0.406,1.503 l 0,2.773 -0.814,0 0,1.038 0.814,0 0,1.801 1.629,0 0,-1.812 1.092,0 L 1.092,0 0,0 z"
               inkscape:connector-curvature="0" />
          </g>
          <g
             transform="translate(215.4229,32.3262)"
             id="g3167">
            <path
               id="path3169"
               style="fill:#231f20;fill-opacity:1;fill-rule:nonzero;stroke:none"
               d="m 0,0 c -0.15,0.11 -0.375,0.221 -0.814,0.221 -0.075,0 -0.385,-0.023 -0.622,-0.166 -0.298,-0.177 -0.652,-0.674 -0.652,-1.525 0,-0.563 0.182,-0.983 0.289,-1.16 0.129,-0.198 0.449,-0.563 1.07,-0.563 0.913,0 1.319,0.785 1.319,1.646 C 0.59,-0.674 0.322,-0.232 0,0 M 1.275,-3.878 C 0.953,-4.154 0.301,-4.552 -0.75,-4.552 c -0.289,0 -1.424,0.056 -2.195,0.828 -0.332,0.332 -0.803,1.039 -0.803,2.244 0,0.331 0.021,1.27 0.652,2.054 0.387,0.475 1.159,1.072 2.573,0.984 C 0.129,1.524 0.707,1.37 1.232,0.938 1.928,0.354 2.26,-0.563 2.26,-1.491 c 0,-1.304 -0.6,-2.056 -0.985,-2.387"
               inkscape:connector-curvature="0" />
          </g>
          <g
             transform="translate(225.2666,27.9512)"
             id="g3171">
            <path
               id="path3173"
               style="fill:#231f20;fill-opacity:1;fill-rule:nonzero;stroke:none"
               d="m 0,0 0,3.016 c 0,0.442 0.021,1.027 -0.385,1.315 -0.138,0.099 -0.301,0.144 -0.461,0.144 -0.086,0 -0.3,-0.023 -0.492,-0.156 C -1.691,4.065 -1.734,3.668 -1.734,2.872 l 0,-2.872 -1.651,0 0,7.8 1.651,0 0.009,-2.641 c 0.034,0.033 0.172,0.199 0.323,0.31 0.513,0.408 1.027,0.452 1.263,0.452 0.75,0 1.178,-0.364 1.36,-0.574 C 1.34,5.214 1.436,5.049 1.49,4.883 1.586,4.629 1.639,4.342 1.639,3.789 L 1.639,0 0,0 z"
               inkscape:connector-curvature="0" />
          </g>
          <g
             transform="translate(231.3291,32.5693)"
             id="g3175">
            <path
               id="path3177"
               style="fill:#231f20;fill-opacity:1;fill-rule:nonzero;stroke:none"
               d="m 0,0 c -0.225,0.11 -0.406,0.11 -0.502,0.11 -0.654,0 -0.955,-0.497 -1.039,-0.696 -0.043,-0.1 -0.086,-0.221 -0.129,-0.441 l 2.281,0 C 0.59,-0.84 0.559,-0.255 0,0 m -1.682,-2.088 c 0,-0.056 -0.009,-0.188 0.022,-0.343 0.129,-0.673 0.59,-1.093 1.254,-1.093 0.095,0 0.31,0.01 0.535,0.099 0.557,0.198 0.803,0.784 0.879,0.928 L 2.25,-3.16 C 2.025,-3.502 1.908,-3.657 1.779,-3.812 0.953,-4.751 -0.117,-4.828 -0.535,-4.828 c -0.172,0 -0.569,0.011 -1.006,0.154 -1.244,0.399 -1.822,1.526 -1.822,2.828 0,0.354 0.021,1.426 0.718,2.254 0.342,0.398 0.932,0.917 2.153,0.917 0.375,0 1.488,-0.044 2.185,-1.05 0.631,-0.894 0.61,-2.087 0.621,-2.363 l -3.996,0 z"
               inkscape:connector-curvature="0" />
          </g>
          <g
             transform="translate(236.6631,30.3486)"
             id="g3179">
            <path
               id="path3181"
               style="fill:#231f20;fill-opacity:1;fill-rule:nonzero;stroke:none"
               d="m 0,0 c -0.064,-0.022 -0.129,-0.044 -0.193,-0.077 -0.407,-0.177 -0.514,-0.42 -0.514,-0.642 0,-0.032 0.012,-0.154 0.064,-0.264 0.065,-0.111 0.225,-0.321 0.569,-0.321 0.299,0 0.556,0.177 0.631,0.232 0.482,0.353 0.504,0.895 0.504,1.436 L 0,0 z m 1.221,-2.397 0,0.519 C 1.104,-1.967 0.996,-2.044 0.879,-2.121 0.676,-2.265 0.203,-2.552 -0.492,-2.552 c -1.008,0 -1.467,0.564 -1.651,0.95 -0.117,0.243 -0.181,0.53 -0.181,0.806 0,1.039 0.9,1.536 1.146,1.647 C -0.76,1.038 0,1.193 1.061,1.392 l 0,0.32 c 0,0.199 -0.032,0.696 -0.631,0.696 -0.483,0 -0.707,-0.232 -0.793,-0.42 C -0.385,1.944 -0.418,1.855 -0.439,1.734 l -1.649,0 c 0.022,0.232 0.031,0.729 0.449,1.161 0.461,0.463 1.071,0.551 1.264,0.584 0.322,0.044 0.59,0.044 0.719,0.044 0.781,0 1.842,-0.187 2.217,-1.015 0.064,-0.155 0.117,-0.31 0.117,-0.641 l 0,-3.37 C 2.678,-2 2.699,-2.188 2.84,-2.397 l -1.619,0 z"
               inkscape:connector-curvature="0" />
          </g>
          <path
             id="path3183"
             style="fill:#231f20;fill-opacity:1;fill-rule:nonzero;stroke:none"
             d="m 240.851,35.751 1.639,0 0,-7.8 -1.639,0 0,7.8 z"
             inkscape:connector-curvature="0" />
          <g
             transform="translate(245.7998,32.5361)"
             id="g3185">
            <path
               id="path3187"
               style="fill:#231f20;fill-opacity:1;fill-rule:nonzero;stroke:none"
               d="m 0,0 0,-2.585 c 0,-0.232 -0.01,-0.365 0.043,-0.465 0.096,-0.187 0.353,-0.187 0.385,-0.187 0.193,0 0.386,0.01 0.58,0.01 l 0,-1.314 C 0.9,-4.562 0.514,-4.629 0.139,-4.629 c -0.118,0 -0.235,0 -0.342,0.011 -0.151,0.011 -0.643,0 -1.018,0.353 -0.429,0.387 -0.408,0.973 -0.408,1.503 l 0,2.773 -0.812,0 0,1.038 0.812,0 0,1.801 1.629,0 0,-1.812 1.092,0 L 1.092,0 0,0 z"
               inkscape:connector-curvature="0" />
          </g>
          <g
             transform="translate(251.1455,27.9512)"
             id="g3189">
            <path
               id="path3191"
               style="fill:#231f20;fill-opacity:1;fill-rule:nonzero;stroke:none"
               d="M 0,0 0,3.016 C 0,3.458 0.021,4.043 -0.387,4.331 -0.525,4.43 -0.686,4.475 -0.848,4.475 -0.932,4.475 -1.146,4.452 -1.34,4.319 -1.693,4.065 -1.736,3.668 -1.736,2.872 l 0,-2.872 -1.649,0 0,7.8 1.649,0 0.011,-2.641 c 0.032,0.033 0.172,0.199 0.321,0.31 0.515,0.408 1.029,0.452 1.263,0.452 0.75,0 1.18,-0.364 1.362,-0.574 C 1.338,5.214 1.436,5.049 1.488,4.883 1.584,4.629 1.639,4.342 1.639,3.789 L 1.639,0 0,0 z"
               inkscape:connector-curvature="0" />
          </g>
          <g
             transform="translate(218.959,41.0195)"
             id="g3193">
            <path
               id="path3195"
               style="fill:#f03c1f;fill-opacity:1;fill-rule:nonzero;stroke:none"
               d="M 0,0 33.799,0"
               inkscape:connector-curvature="0" />
          </g>
          <path
             id="path3197"
             style="fill:#f03c1f;fill-opacity:1;fill-rule:nonzero;stroke:none"
             d="m 252.758,40.77 -33.799,0 0,0.5 33.799,0 0,-0.5 z"
             inkscape:connector-curvature="0" />
          <g
             transform="translate(87.1338,28.2217)"
             id="g3199">
            <path
               id="path3201"
               style="fill:#f03c1f;fill-opacity:1;fill-rule:nonzero;stroke:none"
               d="M 0,0 41.015,0"
               inkscape:connector-curvature="0" />
          </g>
          <path
             id="path3203"
             style="fill:#f03c1f;fill-opacity:1;fill-rule:nonzero;stroke:none"
             d="m 128.149,27.972 -41.015,0 0,0.5 41.015,0 0,-0.5 z"
             inkscape:connector-curvature="0" />
        </g>
      </g>
    </g>
  </g>
</svg>
